<?xml version="1.0" encoding="iso-8859-1"?>
<!-- Generator: Adobe Illustrator 17.1.0, SVG Export Plug-In . SVG Version: 6.00 Build 0)  -->
<!DOCTYPE svg PUBLIC "-//W3C//DTD SVG 1.1//EN" "http://www.w3.org/Graphics/SVG/1.1/DTD/svg11.dtd">
<svg version="1.1" id="Capa_1" xmlns="http://www.w3.org/2000/svg" xmlns:xlink="http://www.w3.org/1999/xlink" x="0px" y="0px"
	 viewBox="0 0 208.145 208.145" style="enable-background:new 0 0 208.145 208.145;" xml:space="preserve">
<path d="M190.739,208.145H17.406c-0.862,0-1.683-0.371-2.252-1.019c-0.569-0.647-0.833-1.508-0.723-2.364L35.703,39.118
	c0.192-1.497,1.466-2.618,2.976-2.618h36.684v-7.191C75.362,13.148,88.001,0,103.536,0s28.174,13.148,28.174,29.309V36.5h37.757
	c1.509,0,2.783,1.121,2.976,2.618l21.272,165.645c0.11,0.855-0.154,1.717-0.723,2.364
	C192.422,207.774,191.601,208.145,190.739,208.145z M20.816,202.145h166.514L166.827,42.5H131.71v7.066
	c0,0.066-0.002,0.131-0.006,0.196c3.662,1.249,6.303,4.723,6.303,8.802c0,5.126-4.17,9.297-9.297,9.297s-9.297-4.17-9.297-9.297
	c0-4.08,2.641-7.554,6.303-8.802c-0.004-0.065-0.006-0.13-0.006-0.196V42.5H81.362v7.066c0,0.066-0.002,0.131-0.006,0.196
	c3.662,1.249,6.303,4.723,6.303,8.802c0,5.126-4.17,9.297-9.297,9.297s-9.297-4.17-9.297-9.297c0-4.08,2.641-7.554,6.303-8.802
	c-0.004-0.065-0.006-0.13-0.006-0.196V42.5H41.318L20.816,202.145z M128.71,55.268c-1.818,0-3.297,1.479-3.297,3.297
	s1.479,3.297,3.297,3.297s3.297-1.479,3.297-3.297S130.528,55.268,128.71,55.268z M78.362,55.268c-1.818,0-3.297,1.479-3.297,3.297
	s1.479,3.297,3.297,3.297s3.297-1.479,3.297-3.297S80.18,55.268,78.362,55.268z M81.362,36.5h44.348v-7.191
	C125.71,16.457,115.762,6,103.536,6S81.362,16.457,81.362,29.309V36.5z"/>
<g>
</g>
<g>
</g>
<g>
</g>
<g>
</g>
<g>
</g>
<g>
</g>
<g>
</g>
<g>
</g>
<g>
</g>
<g>
</g>
<g>
</g>
<g>
</g>
<g>
</g>
<g>
</g>
<g>
</g>
</svg>
